<?xml version="1.0" encoding="utf-8"?>
<!-- Generator: Adobe Illustrator 27.8.0, SVG Export Plug-In . SVG Version: 6.00 Build 0)  -->
<svg version="1.1" id="Layer_1" xmlns="http://www.w3.org/2000/svg" xmlns:xlink="http://www.w3.org/1999/xlink" x="0px" y="0px"
	 viewBox="0 0 500 500" style="enable-background:new 0 0 500 500;" xml:space="preserve">
<style type="text/css">
	.st0{fill:url(#SVGID_1_);}
	.st1{fill:#584930;}
	.st2{fill:none;}
</style>
<g>
	<g>
		<linearGradient id="SVGID_1_" gradientUnits="userSpaceOnUse" x1="189.7728" y1="534.9673" x2="517.9527" y2="143.8577">
			<stop  offset="0" style="stop-color:#C8AA6E"/>
			<stop  offset="0.5307" style="stop-color:#FAF9E9"/>
			<stop  offset="1" style="stop-color:#C8AA6E"/>
		</linearGradient>
		<path class="st0" d="M158.9,370.8c69,0,139.5,0,210.6,0c0-71.3,0-142.3,0-212.6C394.7,133,446.7,84,446.7,84s1.2,297.9-1.6,362
			c-120.5,0-241.1,0-361.4,0C108.3,421.5,132.6,397.1,158.9,370.8z"/>
	</g>
	<g>
		<path class="st1" d="M53.3,54c115.6,0,230.6,0,345.5,0c0.5,0.5,1.2,0.9,1.3,1.4c0.1,0.3-0.6,0.9-1,1.3
			c-19.1,19.1-38.2,38.3-57.3,57.4c-75.6,0-151.1,0-226.6,0c-0.5,0.4-1,0.7-1.4,1.2c-0.3,0.5-0.7,1.1-0.7,1.6
			c0,75.4,0,150.9,0,223.2C92,361.3,72.6,380.7,53.3,400C53.3,285.7,53.3,170.7,53.3,54z"/>
	</g>
	<path class="st1" d="M189.4,189.7c33.9,0,70,0,104.5,0c0,35,0,69.4,0,105.5c-35.1,0-69.5,0-104.5,0
		C189.4,260.5,189.4,224.8,189.4,189.7"/>
</g>
<g>
	<path class="st2" d="M89.5,596.4"/>
</g>
</svg>
