<?xml version="1.0" encoding="utf-8"?>
<!-- Generator: Adobe Illustrator 27.8.0, SVG Export Plug-In . SVG Version: 6.00 Build 0)  -->
<svg version="1.1" id="Layer_1" xmlns="http://www.w3.org/2000/svg" xmlns:xlink="http://www.w3.org/1999/xlink" x="0px" y="0px"
	 viewBox="0 0 500 500" style="enable-background:new 0 0 500 500;" xml:space="preserve">
<style type="text/css">
	.st0{fill:url(#SVGID_1_);}
</style>
<g>
	<g>
		<linearGradient id="SVGID_1_" gradientUnits="userSpaceOnUse" x1="201.9338" y1="437.3127" x2="272.2952" y2="38.2738">
			<stop  offset="0" style="stop-color:#C8AA6E"/>
			<stop  offset="0.5307" style="stop-color:#FAF9E9"/>
			<stop  offset="1" style="stop-color:#C8AA6E"/>
		</linearGradient>
		<path class="st0" d="M141.8,57.4c4.2,5,9,9.5,12.5,14.9c28,43.5,55.1,87.4,76.9,134.4c16.5,35.6,29.8,72.3,36.2,111
			c6.2,37.8,4.7,75.3-9.2,111.5c-2.1,5.4-4.5,10.7-7,16.7c-38.8-38.9-76.3-76.6-116.8-117.2c-2.4-15.2-5.5-34.7-8.8-54.1
			c-7-41.3-25-77.4-52.5-108.9l0.1-0.1c14.2,7.6,29.3,13.9,42.4,23.1c30.4,21.4,55.7,47.6,70.3,82.7c0.9,2.2,2.3,4.1,5.2,9.1
			c0.7-6.3,1.3-9.9,1.6-13.5c4.8-59.9-12.6-115.1-35.9-169.2c-5.7-13.2-9.9-27-14.8-40.5L141.8,57.4z M427.4,165.8
			c-23.8,9.1-41.1,26.5-56.8,45.5c-30.5,36.9-47.2,80.4-58.3,126.3c-3.9,16.1-6.6,32.5-2.4,52c14.6-14.6,27-28.4,40.9-40.4
			c12.8-11.1,17.3-24.7,19.1-40.9c3.1-28,9.3-55.3,19.3-82C397.9,203.2,413.8,185.3,427.4,165.8L427.4,165.8z M265.3,208.7
			c9.5,25.7,18.6,50,27.7,74.4c7.3-14.5,14-29.1,14.8-44c2.6-44.4,14.4-86.1,30.6-127c7.7-19.4,15.4-38.7,23.1-58.1
			C325.3,103.7,286.2,151.1,265.3,208.7z M142,57.3c-0.8-1.1-1.7-2.3-0.3-0.4c-0.6-2.3-0.3-0.9,0.1,0.5
			C141.8,57.4,142,57.3,142,57.3z M73.3,165.7c-0.5-0.2-1-0.5-1.5-0.7c0.5,0.3,0.9,0.5,1.4,0.8C73.2,165.8,73.3,165.7,73.3,165.7z
			 M427.4,165.8c0.3-0.4,0.5-0.9,0.8-1.3C428,164.9,427.7,165.3,427.4,165.8C427.4,165.8,427.4,165.8,427.4,165.8z"/>
	</g>
</g>
</svg>
