<?xml version="1.0" encoding="utf-8"?>
<!-- Generator: Adobe Illustrator 27.8.0, SVG Export Plug-In . SVG Version: 6.00 Build 0)  -->
<svg version="1.1" id="Layer_1" xmlns="http://www.w3.org/2000/svg" xmlns:xlink="http://www.w3.org/1999/xlink" x="0px" y="0px"
	 viewBox="0 0 500 500" style="enable-background:new 0 0 500 500;" xml:space="preserve">
<style type="text/css">
	.st0{fill:url(#SVGID_1_);}
	.st1{fill:#584930;}
</style>
<g>
	<linearGradient id="SVGID_1_" gradientUnits="userSpaceOnUse" x1="13.6495" y1="335.7071" x2="484.9198" y2="164.1788">
		<stop  offset="0" style="stop-color:#C8AA6E"/>
		<stop  offset="0.5307" style="stop-color:#FAF9E9"/>
		<stop  offset="1" style="stop-color:#C8AA6E"/>
	</linearGradient>
	<path class="st0" d="M129.5,446c-24.8,0-49.9,0-75.8,0c0-25.7,0-51.2,0-77.1C158.1,264.6,262.9,159.8,368.7,54
		c24.1,0,49.7,0,76.1,0c0,25.3,0,50.9,0,76.7C340.5,235,235.7,339.8,129.5,446z"/>
</g>
<g>
	<path class="st1" d="M189.9,445.5c19.5-19.5,38.9-38.9,60.1-60.1c42.9,0,88.6,0,135.3,0c0-29.5,0.7-131.8,0.7-131.8l60.2-64.6
		l-1,256.5C445,445.5,274.7,445.5,189.9,445.5z"/>
</g>
<g>
	<path class="st1" d="M246.6,114c-41.1,0-86.3,0-132.3,0c0,45.7,0,91.4,0,135.5c-20.7,20.7-40.2,40.2-59.9,59.9
		c0.4,0.2-0.1,0.1-0.4-0.3c-0.4-0.4-0.9-1-0.9-1.5c0-84.2,0-168.4,0-253.4c85.3,0,170.5,0,253.3,0C288.3,72.3,269.1,91.5,246.6,114z
		"/>
</g>
</svg>
