<?xml version="1.0" encoding="utf-8"?>
<!-- Generator: Adobe Illustrator 27.8.0, SVG Export Plug-In . SVG Version: 6.00 Build 0)  -->
<svg version="1.1" id="Layer_1" xmlns="http://www.w3.org/2000/svg" xmlns:xlink="http://www.w3.org/1999/xlink" x="0px" y="0px"
	 viewBox="0 0 500 500" style="enable-background:new 0 0 500 500;" xml:space="preserve">
<style type="text/css">
	.st0{fill:url(#SVGID_1_);}
	.st1{fill:none;}
</style>
<g>
	<g>
		<linearGradient id="SVGID_1_" gradientUnits="userSpaceOnUse" x1="11.4527" y1="250" x2="488.5473" y2="250">
			<stop  offset="0" style="stop-color:#C8AA6E"/>
			<stop  offset="0.5307" style="stop-color:#FAF9E9"/>
			<stop  offset="1" style="stop-color:#C8AA6E"/>
		</linearGradient>
		<path class="st0" d="M11.5,137.4c50.6,0,101.3,0,151.9,0c1.1,0,2.2,0.5,2.6,0.6c13.8,14.3,27,28,41.7,43.2
			c-8.3,30.7-17.6,63.1-27.9,97.3c-24.5-9.7-46.9-18.5-71.4-28.1c13.4-18.4,26.2-35.8,39.5-54c-6-4.7-12.6-3.1-18.4-2.7
			c-26.2,1.7-48.9-7.8-70.4-21.1c-16.2-10.1-31.7-21.1-47.5-31.7C11.5,139.7,11.5,138.6,11.5,137.4z M213.5,299.4
			c-7.3,34.8-14.8,69.5-20.7,104.4c19.7,14.6,38.1,28.3,56.8,42.2c19.5-14.7,37.9-28.5,56.5-42.5c-1.8-10.6-3.3-20.3-5.2-29.8
			c-7.8-38.9-15.7-77.8-23.5-116.8c-3.8-19.2-7.5-38.4-11.4-57.6c-0.4-1.8-2.6-3.3-4-4.9c-4.8,3.5-8.8,6.6-13,9.7
			c-4.2-3.6-7.7-6.5-14.5-12.2C227,229.7,220.7,264.7,213.5,299.4z M333.6,137.9c-14.5,14.8-27.9,28.4-42.7,43.4
			c9,30.7,16.9,63.5,28.5,96.5c24.9-8.5,47.5-17.6,70-28c-11.7-19.9-27.3-35.3-39.3-56.4c26.9,1.1,50.9-0.2,73.4-11.8
			c22.2-11.5,42.2-26,65-43.8C434,137.9,382.9,137.9,333.6,137.9z M319.8,82.1c-5.1-9.9-9.8-19.1-14.5-28.1c-37.9,0-74.4,0-111.6,0
			c-5.1,9-10.1,17.9-15.4,27.2c23.8,28.6,46.8,56.4,71.1,85.7C273.4,137.9,296.5,110.1,319.8,82.1z"/>
	</g>
</g>
<g>
	<path class="st1" d="M609.5,596.4"/>
</g>
</svg>
