<?xml version="1.0" encoding="utf-8"?>
<!-- Generator: Adobe Illustrator 27.8.0, SVG Export Plug-In . SVG Version: 6.00 Build 0)  -->
<svg version="1.1" id="Layer_1" xmlns="http://www.w3.org/2000/svg" xmlns:xlink="http://www.w3.org/1999/xlink" x="0px" y="0px"
	 viewBox="0 0 500 500" style="enable-background:new 0 0 500 500;" xml:space="preserve">
<style type="text/css">
	.st0{fill:url(#SVGID_1_);}
	.st1{fill:#584930;}
</style>
<g>
	<g>
		<linearGradient id="SVGID_1_" gradientUnits="userSpaceOnUse" x1="34.0211" y1="410.5902" x2="280.7446" y2="-16.7475">
			<stop  offset="0" style="stop-color:#C8AA6E"/>
			<stop  offset="0.5307" style="stop-color:#FAF9E9"/>
			<stop  offset="1" style="stop-color:#C8AA6E"/>
		</linearGradient>
		<path class="st0" d="M341.1,136.7c-69,0-139.5,0-210.6,0c0,71.3,0,142.3,0,212.6c-25.2,25.2-49.7,49.7-74.1,74.1
			c-3-15.8-4.1-297.9-1.4-362c120.5,0,241.1,0,361.4,0C391.7,86,367.4,110.3,341.1,136.7z"/>
	</g>
	<g>
		<path class="st1" d="M446.7,446c-115.6,0-230.6,0-345.5,0c-0.5-0.5-1.2-0.9-1.3-1.4c-0.1-0.3,0.6-0.9,1-1.3
			c19.1-19.1,38.2-38.3,57.3-57.4c75.6,0,151.1,0,226.6,0c0.5-0.4,1-0.7,1.4-1.2c0.3-0.5,0.7-1.1,0.7-1.6c0-75.4,0-150.9,0-223.2
			c21.2-21.2,40.6-40.6,59.9-59.9C446.7,214.3,446.7,329.3,446.7,446z"/>
	</g>
	<g>
		<path class="st1" d="M206.1,204.8c35.1,0,69.5,0,104.5,0c0,34.7,0,69.1,0,104.2c0.2-0.2-0.2,0.3-0.7,0.7c-0.5,0.3-1.1,0.6-1.6,0.6
			c-33.9,0-67.8,0-102.3,0C206.1,275.3,206.1,240.8,206.1,204.8z"/>
	</g>
</g>
</svg>
